# xmcd
#
# Track frame offsets: 
#        150
#        22618
#        33017
#        47435
#        72819
#        90063
#        106400
#        119299
#        138785
#        158594
#
# Disc length: 2435 seconds
#
# Revision: 0
# Processed by: cddbd v1.5.2PL0 Copyright (c) Steve Scherf et al.
# Submitted via: ExactAudioCopy v0.95b4
#
DISCID=5f09810a
DTITLE=Mama Blues Project (NO 55) - Stormy Spring
DYEAR=1989
DGENRE=Blues
TTITLE0=I Got The Blues
TTITLE1=Gelbes Segel
TTITLE2=Stormy Spring
TTITLE3=Schatten
TTITLE4=Mama Blues
TTITLE5=Don't Leave Me
TTITLE6=Keith R. (Doktor)
TTITLE7=Mrs. Kramer
TTITLE8=1970
TTITLE9=Schiffe versenken
EXTD=
EXTT0=
EXTT1=
EXTT2=
EXTT3=
EXTT4=
EXTT5=
EXTT6=
EXTT7=
EXTT8=
EXTT9=
PLAYORDER=
